<svg width="32" height="32" viewBox="0 0 32 32" fill="none" xmlns="http://www.w3.org/2000/svg">
<path d="M15.9988 29.3333C9.37144 29.3333 3.99886 23.9608 3.99886 17.3333C3.99886 10.7059 9.37144 5.33333 15.9988 5.33333C22.6263 5.33333 27.9988 10.7059 27.9988 17.3333C27.9988 23.9608 22.6263 29.3333 15.9988 29.3333ZM15.9988 26.6666C21.1535 26.6666 25.3321 22.488 25.3321 17.3333C25.3321 12.1787 21.1535 8 15.9988 8C10.8442 8 6.66552 12.1787 6.66552 17.3333C6.66552 22.488 10.8442 26.6666 15.9988 26.6666ZM17.3321 17.3333H21.3321V20H14.6655V10.6667H17.3321V17.3333ZM2.32812 8.37664L7.04218 3.6626L8.92779 5.54821L4.21375 10.2623L2.32812 8.37664ZM24.9556 3.6626L29.6696 8.37664L27.784 10.2623L23.0699 5.54821L24.9556 3.6626Z" fill="#27AE60"/>
</svg>
