<svg width="32" height="32" viewBox="0 0 32 32" fill="none" xmlns="http://www.w3.org/2000/svg">
<path d="M15.9993 26.667C21.8904 26.667 26.666 21.8914 26.666 16.0003C26.666 10.1093 21.8904 5.33366 15.9993 5.33366C10.1083 5.33366 5.33268 10.1093 5.33268 16.0003C5.33268 21.8914 10.1083 26.667 15.9993 26.667ZM15.9993 29.3337C8.63555 29.3337 2.66602 23.3641 2.66602 16.0003C2.66602 8.63653 8.63555 2.66699 15.9993 2.66699C23.3631 2.66699 29.3327 8.63653 29.3327 16.0003C29.3327 23.3641 23.3631 29.3337 15.9993 29.3337ZM15.9993 21.3337C18.9448 21.3337 21.3327 18.9458 21.3327 16.0003C21.3327 13.0548 18.9448 10.667 15.9993 10.667C13.0538 10.667 10.666 13.0548 10.666 16.0003C10.666 18.9458 13.0538 21.3337 15.9993 21.3337ZM15.9993 24.0003C11.5811 24.0003 7.99935 20.4186 7.99935 16.0003C7.99935 11.582 11.5811 8.00033 15.9993 8.00033C20.4176 8.00033 23.9993 11.582 23.9993 16.0003C23.9993 20.4186 20.4176 24.0003 15.9993 24.0003ZM15.9993 18.667C14.5265 18.667 13.3327 17.4731 13.3327 16.0003C13.3327 14.5275 14.5265 13.3337 15.9993 13.3337C17.4721 13.3337 18.666 14.5275 18.666 16.0003C18.666 17.4731 17.4721 18.667 15.9993 18.667Z" fill="#27AE60"/>
</svg>
