<svg width="209" height="82" viewBox="0 0 209 82" fill="none" xmlns="http://www.w3.org/2000/svg">
<path d="M88.2316 59.2551C88.4423 59.5172 88.5466 59.844 88.5466 60.2348C88.5466 60.7885 88.3424 61.2191 87.9341 61.5257C87.5257 61.8321 86.9343 61.9859 86.1591 61.9859H83.5183C83.3241 61.9859 83.168 61.8284 83.168 61.634V56.016C83.168 55.8215 83.3251 55.665 83.5183 55.665H85.9882C86.6967 55.665 87.2493 55.8068 87.6457 56.0891C88.0421 56.3724 88.2408 56.7725 88.2408 57.2901C88.2408 57.6217 88.1614 57.9068 88.0024 58.1476C87.8435 58.3884 87.6134 58.5717 87.3131 58.6985C87.715 58.8078 88.0218 58.9931 88.2316 59.2551ZM84.3211 58.3652H85.8892C86.2681 58.3652 86.5563 58.2902 86.7542 58.1393C86.9527 57.9883 87.0516 57.7661 87.0516 57.4707C87.0516 57.1762 86.9527 56.9513 86.7542 56.7985C86.5555 56.6447 86.2672 56.5679 85.8892 56.5679H84.3211V58.3652ZM87.3666 60.1449C87.3666 59.5311 86.9527 59.2237 86.1229 59.2237H84.3211V61.0839H86.1229C86.9527 61.0839 87.3666 60.771 87.3666 60.1449Z" fill="#A8A8A8"/>
<path d="M94.5364 58.3154C94.1318 57.9774 93.5496 57.806 92.7929 57.806H91.0446V55.9597C91.0446 55.7967 90.9134 55.667 90.7527 55.667H90.1826C90.0219 55.667 89.8906 55.7967 89.8906 55.9597V61.6933C89.8906 61.8563 90.0219 61.986 90.1826 61.986H92.6035C93.4074 61.986 94.0329 61.8026 94.4773 61.4313C94.9217 61.0599 95.1435 60.5266 95.1435 59.8274C95.1435 59.1599 94.9422 58.6551 94.5364 58.3154ZM93.6032 60.7674C93.3583 60.9776 93.0063 61.0832 92.5498 61.0832H91.0446V58.7005H92.5498C93.4979 58.7005 93.9728 59.082 93.9728 59.847C93.9728 60.2506 93.8499 60.5572 93.6032 60.7674Z" fill="#A8A8A8"/>
<path d="M97.2069 55.9597V61.6933C97.2069 61.8563 97.0757 61.986 96.9148 61.986H96.3448C96.184 61.986 96.0527 61.8563 96.0527 61.6933V55.9597C96.0527 55.7967 96.184 55.667 96.3448 55.667H96.9148C97.0757 55.667 97.2069 55.7967 97.2069 55.9597Z" fill="#A8A8A8"/>
<path d="M76.7103 59.1285V59.6999C76.7103 59.8609 76.5809 59.9925 76.4184 59.9925H53.8505C53.688 59.9925 53.5586 59.8609 53.5586 59.6999V59.1285C53.5586 58.9675 53.688 58.8359 53.8505 58.8359H76.4184C76.5809 58.8359 76.7103 58.9675 76.7103 59.1285Z" fill="#A8A8A8"/>
<path d="M190.714 59.1285V59.6999C190.714 59.8609 190.585 59.9925 190.423 59.9925H167.855C167.693 59.9925 167.562 59.8609 167.562 59.6999V59.1285C167.562 58.9675 167.693 58.8359 167.855 58.8359H190.423C190.585 58.8359 190.714 58.9675 190.714 59.1285Z" fill="#A8A8A8"/>
<path d="M104.053 59.2551C104.263 59.5172 104.368 59.844 104.368 60.2348C104.368 60.7885 104.164 61.2191 103.755 61.5255C103.347 61.8321 102.755 61.9857 101.98 61.9857H99.3765C99.162 61.9857 98.9883 61.8117 98.9883 61.5968V56.0549C98.9883 55.8401 99.162 55.666 99.3765 55.666H101.808C102.517 55.666 103.07 55.8076 103.466 56.0901C103.862 56.3734 104.061 56.7734 104.061 57.2911C104.061 57.6225 103.982 57.9078 103.823 58.1484C103.664 58.3892 103.434 58.5727 103.133 58.6995C103.536 58.8078 103.842 58.993 104.053 59.2551ZM100.142 58.3652H101.71C102.089 58.3652 102.377 58.2902 102.575 58.1392C102.774 57.9883 102.873 57.7661 102.873 57.4707C102.873 57.1762 102.774 56.9512 102.575 56.7985C102.377 56.6447 102.088 56.5678 101.71 56.5678H100.142V58.3652ZM103.188 60.1449C103.188 59.5311 102.774 59.2236 101.944 59.2236H100.142V61.0839H101.944C102.773 61.0839 103.188 60.7709 103.188 60.1449Z" fill="#A8A8A8"/>
<path d="M106.882 61.6572C106.366 61.3776 105.96 60.9887 105.666 60.4923C105.372 59.996 105.225 59.4404 105.225 58.8266C105.225 58.2126 105.372 57.657 105.666 57.1606C105.96 56.6643 106.366 56.2754 106.882 55.9957C107.399 55.7161 107.978 55.5762 108.621 55.5762C109.264 55.5762 109.844 55.7161 110.36 55.9957C110.877 56.2754 111.282 56.6624 111.577 57.1559C111.871 57.6496 112.019 58.206 112.019 58.8266C112.019 59.4469 111.872 60.0035 111.577 60.497C111.282 60.9905 110.877 61.3776 110.36 61.6572C109.844 61.9369 109.264 62.0768 108.621 62.0768C107.979 62.0768 107.399 61.9369 106.882 61.6572ZM109.757 60.7628C110.093 60.573 110.358 60.3081 110.55 59.9682C110.742 59.6283 110.838 59.2478 110.838 58.8255C110.838 58.4042 110.742 58.0236 110.55 57.6829C110.358 57.343 110.093 57.0783 109.757 56.8883C109.42 56.6986 109.042 56.604 108.621 56.604C108.201 56.604 107.822 56.6986 107.486 56.8883C107.149 57.0783 106.885 57.343 106.693 57.6829C106.501 58.0228 106.405 58.4042 106.405 58.8255C106.405 59.2469 106.501 59.6275 106.693 59.9682C106.885 60.3081 107.149 60.573 107.486 60.7628C107.822 60.9525 108.201 61.0471 108.621 61.0471C109.043 61.0479 109.42 60.9525 109.757 60.7628Z" fill="#A8A8A8"/>
<path d="M117.338 59.2736C117.552 59.5414 117.658 59.8561 117.658 60.2173C117.658 60.5968 117.535 60.9265 117.289 61.2061C117.042 61.4858 116.713 61.7016 116.302 61.8516C115.891 62.0015 115.442 62.0775 114.955 62.0775C114.534 62.0775 114.112 62.0193 113.689 61.9016C113.334 61.8034 113.001 61.6636 112.691 61.4831C112.587 61.4228 112.549 61.2905 112.597 61.1812L112.78 60.7645C112.837 60.6366 112.99 60.5839 113.112 60.6524C113.328 60.7737 113.56 60.8709 113.81 60.9451C114.146 61.0441 114.48 61.0942 114.81 61.0942C115.284 61.0942 115.679 61.0006 115.994 60.8145C116.309 60.6284 116.467 60.3719 116.467 60.0469C116.467 59.7699 116.353 59.5589 116.124 59.4143C115.896 59.2699 115.581 59.1978 115.178 59.1978H113.987C113.834 59.1978 113.71 59.0736 113.71 58.92V58.5552C113.71 58.4014 113.834 58.2774 113.987 58.2774H115.089C115.364 58.2774 115.592 58.2319 115.773 58.1422C116.119 57.9708 116.293 57.5449 116.156 57.1846C116.095 57.0245 115.977 56.8921 115.805 56.7875C115.538 56.6253 115.198 56.5438 114.783 56.5438C114.5 56.5438 114.209 56.5847 113.909 56.6662C113.703 56.7217 113.505 56.7949 113.316 56.8866C113.176 56.9542 113.009 56.8856 112.952 56.7401L112.783 56.3059C112.731 56.1706 112.794 56.0197 112.926 55.9586C113.18 55.841 113.447 55.7484 113.725 55.6818C114.088 55.5948 114.45 55.5503 114.81 55.5503C115.279 55.5503 115.709 55.6226 116.103 55.767C116.497 55.9114 116.81 56.1179 117.045 56.3855C117.278 56.6531 117.396 56.9681 117.396 57.329C117.396 57.6421 117.312 57.9162 117.143 58.1505C116.984 58.3736 116.766 58.5476 116.493 58.6727C116.477 58.6802 116.478 58.7014 116.495 58.707C116.853 58.8273 117.134 59.0162 117.338 59.2736Z" fill="#A8A8A8"/>
<path d="M127.262 61.7015L127.253 57.7975L125.264 61.1255C125.212 61.2117 125.12 61.2644 125.019 61.2644H124.819C124.719 61.2644 124.626 61.2126 124.575 61.1274L122.585 57.8512V61.7005C122.585 61.8589 122.458 61.9867 122.3 61.9867H121.762C121.604 61.9867 121.477 61.8589 121.477 61.7005V55.952C121.477 55.7937 121.604 55.666 121.762 55.666H122.279C122.379 55.666 122.472 55.7187 122.523 55.8049L124.936 59.8467L127.322 55.8068C127.373 55.7196 127.467 55.666 127.567 55.666H128.075C128.232 55.666 128.359 55.7937 128.36 55.9512L128.377 61.6997C128.377 61.858 128.249 61.9867 128.091 61.9867H127.545C127.39 61.9867 127.263 61.8589 127.262 61.7015Z" fill="#A8A8A8"/>
<path d="M135.16 55.666C135.342 55.666 135.458 55.8605 135.371 56.0216L132.823 60.7681C132.582 61.2201 132.295 61.558 131.962 61.7839C131.629 62.0098 131.267 62.1228 130.877 62.1228C130.642 62.1228 130.409 62.0849 130.177 62.0108C130.05 61.9691 129.977 61.8339 130.017 61.7061L130.166 61.2265C130.204 61.1051 130.332 61.0357 130.455 61.0653C130.606 61.1024 130.738 61.1209 130.849 61.1209C131.228 61.1209 131.54 60.9256 131.786 60.5338L131.885 60.3802L129.56 56.0216C129.474 55.8605 129.591 55.6669 129.773 55.6669H130.475C130.565 55.6669 130.649 55.7179 130.69 55.7994L132.488 59.3783L134.34 55.7975C134.382 55.7179 134.464 55.6669 134.554 55.6669L135.16 55.666Z" fill="#A8A8A8"/>
<path d="M137.487 61.6572C136.973 61.3776 136.571 60.9905 136.279 60.497C135.988 60.0035 135.842 59.4469 135.842 58.8266C135.842 58.207 135.989 57.6496 136.284 57.1559C136.577 56.6624 136.982 56.2754 137.496 55.9957C138.01 55.7161 138.584 55.5762 139.221 55.5762C139.737 55.5762 140.209 55.666 140.636 55.8476C140.946 55.979 141.221 56.1532 141.462 56.3707C141.609 56.5041 141.604 56.7384 141.46 56.8755L141.197 57.1226C141.069 57.244 140.87 57.2458 140.735 57.132C140.323 56.7819 139.836 56.6069 139.274 56.6069C138.842 56.6069 138.455 56.7012 138.112 56.8912C137.769 57.081 137.502 57.344 137.31 57.6811C137.118 58.0181 137.022 58.4005 137.022 58.8274C137.022 59.2553 137.118 59.6367 137.31 59.9747C137.502 60.3128 137.769 60.5748 138.112 60.7646C138.455 60.9544 138.842 61.0489 139.274 61.0489C139.835 61.0489 140.321 60.872 140.733 60.5193C140.869 60.4025 141.069 60.4043 141.198 60.5285L141.462 60.7803C141.605 60.9174 141.609 61.1507 141.462 61.2832C141.22 61.5018 140.943 61.6766 140.63 61.8082C140.2 61.9887 139.727 62.0794 139.211 62.0794C138.575 62.0768 138 61.9369 137.487 61.6572Z" fill="#A8A8A8"/>
<path d="M143.851 61.6572C143.334 61.3776 142.929 60.9887 142.635 60.4923C142.34 59.996 142.193 59.4404 142.193 58.8266C142.193 58.2126 142.34 57.657 142.635 57.1606C142.929 56.6643 143.334 56.2754 143.851 55.9957C144.367 55.7161 144.947 55.5762 145.59 55.5762C146.233 55.5762 146.812 55.7161 147.329 55.9957C147.845 56.2754 148.251 56.6624 148.546 57.1559C148.84 57.6496 148.987 58.206 148.987 58.8266C148.987 59.4469 148.84 60.0035 148.546 60.497C148.251 60.9905 147.845 61.3776 147.329 61.6572C146.812 61.9369 146.233 62.0768 145.59 62.0768C144.947 62.0768 144.367 61.9369 143.851 61.6572ZM146.725 60.7628C147.062 60.573 147.326 60.3081 147.518 59.9682C147.71 59.6283 147.807 59.2478 147.807 58.8255C147.807 58.4042 147.71 58.0236 147.518 57.6829C147.326 57.343 147.062 57.0783 146.725 56.8883C146.389 56.6986 146.01 56.604 145.59 56.604C145.169 56.604 144.791 56.6986 144.454 56.8883C144.118 57.0783 143.854 57.343 143.662 57.6829C143.469 58.0228 143.373 58.4042 143.373 58.8255C143.373 59.2469 143.469 59.6275 143.662 59.9682C143.854 60.3081 144.118 60.573 144.454 60.7628C144.791 60.9525 145.169 61.0471 145.59 61.0471C146.01 61.0479 146.389 60.9525 146.725 60.7628Z" fill="#A8A8A8"/>
<path d="M154.308 55.9364C154.714 56.117 155.024 56.3764 155.241 56.7134C155.457 57.0505 155.565 57.4504 155.565 57.9145C155.565 58.3718 155.457 58.7709 155.241 59.1108C155.024 59.4505 154.713 59.7118 154.308 59.8923C153.903 60.0729 153.427 60.1636 152.88 60.1636H151.456V61.6684C151.456 61.8443 151.314 61.9869 151.138 61.9869H150.603C150.427 61.9869 150.285 61.8443 150.285 61.6684V55.9856C150.285 55.8096 150.427 55.667 150.603 55.667H152.88C153.426 55.6662 153.903 55.7559 154.308 55.9364ZM153.988 58.8441C154.252 58.6274 154.384 58.3173 154.384 57.9145C154.384 57.5117 154.252 57.2014 153.988 56.9847C153.723 56.768 153.335 56.6597 152.825 56.6597H151.456V59.1701H152.825C153.336 59.1691 153.723 59.0608 153.988 58.8441Z" fill="#A8A8A8"/>
<path d="M160.539 60.5236H157.385L156.841 61.8035C156.792 61.9146 156.684 61.9867 156.565 61.9867H156.02C155.802 61.9867 155.657 61.7618 155.745 61.5617L158.312 55.8428C158.362 55.7345 158.47 55.665 158.587 55.665H159.352C159.471 55.665 159.578 55.7345 159.626 55.8419L162.202 61.5608C162.291 61.7598 162.147 61.9859 161.928 61.9859H161.365C161.245 61.9859 161.138 61.9146 161.089 61.8043L160.539 60.5236ZM160.15 59.6024L158.962 56.8391L157.782 59.6024H160.15Z" fill="#A8A8A8"/>
<path d="M172.989 46.4552L166.674 32.4339C166.485 32.0135 166.064 31.7412 165.604 31.7412H163.686C163.225 31.7412 162.805 32.0135 162.616 32.4339L156.321 46.4552C156.157 46.8218 156.187 47.2404 156.406 47.5784C156.622 47.9145 156.99 48.1144 157.39 48.1144H158.808C159.282 48.1144 159.704 47.834 159.889 47.3997L161.101 44.5513H168.15L169.38 47.4061C169.566 47.8366 169.99 48.1154 170.458 48.1154H171.921C172.323 48.1154 172.69 47.9155 172.907 47.5774C173.123 47.2404 173.155 46.82 172.989 46.4552ZM162.477 41.3382L164.625 36.3138L166.786 41.3382H162.477Z" fill="#1D1D1B"/>
<path d="M68.558 45.3015C68.558 45.6247 68.4202 45.9404 68.1837 46.1627C67.5314 46.7794 66.7644 47.2757 65.9033 47.6387C64.8009 48.1007 63.5747 48.335 62.2572 48.335C60.63 48.335 59.1395 47.972 57.821 47.2526C57.1585 46.8915 56.5644 46.4591 56.0423 45.9562C55.5202 45.4533 55.0694 44.882 54.6933 44.2459C53.943 42.9746 53.5605 41.5206 53.5605 39.928C53.5605 38.3354 53.9467 36.8815 54.7062 35.6083C55.4648 34.3341 56.52 33.3248 57.8451 32.6034C59.1618 31.8858 60.6541 31.521 62.2811 31.521C63.5997 31.521 64.8213 31.7561 65.917 32.2202C66.7709 32.5813 67.5332 33.0775 68.1837 33.6915C68.422 33.9166 68.558 34.2313 68.558 34.5573C68.558 34.8832 68.4267 35.1861 68.1874 35.4101L67.3318 36.2186C66.8872 36.6371 66.2091 36.6492 65.7545 36.2472C64.8101 35.4065 63.718 34.9981 62.4124 34.9981C61.4458 34.9981 60.5717 35.212 59.8131 35.6305C59.0602 36.0472 58.4659 36.6343 58.0446 37.3741C57.6215 38.1158 57.4052 38.9751 57.4052 39.928C57.4052 40.8809 57.6215 41.7392 58.0446 42.4837C58.4659 43.2217 59.061 43.8088 59.8131 44.2255C60.5717 44.6459 61.4458 44.858 62.4124 44.858C63.7143 44.858 64.8064 44.4459 65.7498 43.5986C66.1981 43.195 66.8956 43.207 67.3355 43.6274L68.1947 44.4477C68.4304 44.6728 68.5598 44.9755 68.558 45.3015Z" fill="#27AE60"/>
<path d="M84.3426 32.9182V46.9395C84.3426 47.5866 83.8158 48.1144 83.1682 48.1144H81.7387C81.0929 48.1144 80.5661 47.5866 80.5661 46.9395V35.1303H73.5594V46.9403C73.5594 47.5876 73.0328 48.1154 72.385 48.1154H70.9557C70.3097 48.1154 69.7812 47.5876 69.7812 46.9403V32.9182C69.7812 32.269 70.3097 31.7412 70.9557 31.7412H83.1682C83.8158 31.7422 84.3426 32.269 84.3426 32.9182Z" fill="#27AE60"/>
<path d="M98.8595 45.9255V46.9395C98.8595 47.5866 98.3328 48.1144 97.6851 48.1144H87.5377C86.8901 48.1144 86.3633 47.5866 86.3633 46.9395V32.9182C86.3633 32.269 86.8901 31.7412 87.5377 31.7412H97.3783C98.0261 31.7412 98.5527 32.269 98.5527 32.9182V33.9321C98.5527 34.5813 98.0261 35.1091 97.3783 35.1091H90.184V38.1454H96.434C97.0798 38.1454 97.6085 38.6732 97.6085 39.3222V40.2926C97.6085 40.9418 97.0798 41.4696 96.434 41.4696H90.184V44.7486H97.6841C98.3328 44.7486 98.8595 45.2764 98.8595 45.9255Z" fill="#27AE60"/>
<path d="M116.682 45.9033V50.3286C116.682 50.9777 116.155 51.5056 115.508 51.5056H114.253C113.607 51.5056 113.078 50.9777 113.078 50.3286V48.1144H101.208C100.562 48.1144 100.033 47.5866 100.033 46.9395V32.9182C100.033 32.269 100.562 31.7412 101.208 31.7412H102.637C103.285 31.7412 103.812 32.269 103.812 32.9182V44.7263H110.598V32.9182C110.598 32.269 111.125 31.7412 111.773 31.7412H113.222C113.87 31.7412 114.397 32.269 114.397 32.9182V44.7263H115.508C116.155 44.7263 116.682 45.2541 116.682 45.9033Z" fill="#27AE60"/>
<path d="M143.499 32.9181V33.9525C143.499 34.6015 142.973 35.1293 142.325 35.1293H138.405V46.9395C138.405 47.5866 137.879 48.1144 137.231 48.1144H135.779C135.134 48.1144 134.607 47.5866 134.607 46.9395V35.1303H130.708C130.06 35.1303 129.533 34.6025 129.533 33.9533V32.919C129.533 32.27 130.06 31.7422 130.708 31.7422H142.325C142.973 31.7422 143.499 32.269 143.499 32.9181Z" fill="#1D1D1B"/>
<path d="M127.768 38.0249H120.216C119.571 38.0249 119.043 38.5537 119.043 39.2V40.6548C119.043 41.3039 119.57 41.8317 120.216 41.8317H127.768C128.277 41.8317 128.69 41.4187 128.69 40.9085V38.9482C128.69 38.4379 128.277 38.0249 127.768 38.0249Z" fill="#1D1D1B"/>
<path d="M157.713 34.5155C157.425 34.0663 157.074 33.6664 156.658 33.32C156.243 32.9737 155.766 32.681 155.231 32.4422C154.184 31.9765 152.947 31.7412 151.553 31.7412H145.921C145.273 31.7412 144.746 32.269 144.746 32.9182V46.9395C144.746 47.5866 145.273 48.1144 145.921 48.1144H147.393C148.041 48.1144 148.568 47.5866 148.568 46.9395V43.6689H151.554C152.948 43.6689 154.185 43.4336 155.232 42.9678C156.303 42.4901 157.141 41.7891 157.716 40.8817C158.291 39.977 158.582 38.9094 158.582 37.7055C158.582 36.486 158.291 35.4146 157.713 34.5155ZM154.738 37.7065C154.738 38.5435 154.481 39.1612 153.951 39.5981C153.398 40.0491 152.547 40.2806 151.423 40.2806H148.569V35.1303H151.423C152.546 35.1303 153.398 35.3609 153.951 35.8146C154.48 36.2489 154.738 36.8675 154.738 37.7065Z" fill="#1D1D1B"/>
<path d="M188.695 32.9182V46.9395C188.695 47.5866 188.167 48.1144 187.52 48.1144H186.047C185.399 48.1144 184.873 47.5866 184.873 46.9395V41.5123H177.888V46.9395C177.888 47.5866 177.362 48.1144 176.715 48.1144H175.241C174.594 48.1144 174.066 47.5866 174.066 46.9395V32.9182C174.066 32.269 174.594 31.7412 175.241 31.7412H176.715C177.362 31.7412 177.888 32.269 177.888 32.9182V38.1019H184.873V32.9182C184.873 32.269 185.399 31.7412 186.047 31.7412H187.52C188.167 31.7422 188.695 32.269 188.695 32.9182Z" fill="#1D1D1B"/>
<path d="M204.647 45.3015C204.647 45.6247 204.51 45.9404 204.274 46.1627C203.621 46.7794 202.853 47.2757 201.992 47.6387C200.891 48.1007 199.664 48.335 198.346 48.335C196.719 48.335 195.23 47.972 193.91 47.2526C192.586 46.5312 191.534 45.5191 190.782 44.2459C190.032 42.9746 189.65 41.5206 189.65 39.928C189.65 38.3354 190.035 36.8815 190.795 35.6083C191.554 34.3369 192.61 33.3248 193.934 32.6034C195.25 31.8858 196.743 31.521 198.37 31.521C199.689 31.521 200.911 31.7561 202.007 32.2202C202.861 32.5813 203.623 33.0775 204.274 33.6915C204.511 33.9166 204.647 34.2313 204.647 34.5573C204.647 34.8832 204.516 35.1861 204.277 35.4101L203.422 36.2186C202.975 36.6371 202.298 36.6492 201.843 36.2472C200.899 35.4065 199.806 34.9981 198.502 34.9981C197.535 34.9981 196.661 35.212 195.902 35.6305C195.149 36.0472 194.555 36.6343 194.135 37.3741C193.711 38.1158 193.495 38.9751 193.495 39.928C193.495 40.8809 193.711 41.7392 194.135 42.4837C194.555 43.2217 195.151 43.8088 195.902 44.2255C196.661 44.6459 197.535 44.858 198.502 44.858C199.804 44.858 200.896 44.4459 201.84 43.5986C202.287 43.195 202.985 43.207 203.427 43.6274L204.284 44.4477C204.52 44.6728 204.649 44.9755 204.647 45.3015Z" fill="#1D1D1B"/>
<path d="M39.6305 28.8441L36.5981 30.0897C35.856 30.3943 35.709 31.3676 36.3133 31.8944C42.2778 37.0892 44.4844 45.1749 41.777 52.6512C38.8055 60.8517 30.8498 65.7947 22.0062 64.967C13.4934 64.1604 6.34259 57.1599 5.37234 48.6798C4.35038 39.5384 9.42778 31.224 17.7548 28.4636C17.8065 28.4432 17.8889 28.4321 17.9711 28.4321C18.2603 28.4321 18.6825 28.5359 19.0032 28.608L19.2508 28.6701C19.7461 28.7841 20.2515 28.9497 20.7883 29.1248C21.8824 29.497 22.9967 29.8693 24.2146 29.8489C25.8445 29.8174 27.5891 29.559 29.4361 29.0942L29.5295 29.0627C30.0043 28.9487 30.4884 28.8145 30.9735 28.6591L31.5105 28.4932C32.0879 28.3173 32.6562 28.1413 33.2236 27.9654L34.1004 27.707L43.6037 24.8939L42.7167 24.1077C39.4559 21.2121 36.1535 19.0195 32.6147 17.4175C29.6014 16.0322 27.0014 15.422 24.3911 15.5044C20.3772 15.6591 17.2096 17.5619 14.7019 21.3159L14.5883 21.4817C18.3546 20.4575 26.8877 19.0927 36.8152 23.7355C36.8152 23.7355 21.7391 20.8918 13.5978 24.5836C13.2162 24.7597 12.8447 24.956 12.4835 25.1625C12.2875 25.2661 12.1019 25.3801 11.916 25.5032C3.74424 30.4155 -0.930281 39.7531 0.328217 49.277C1.73178 59.9693 9.89346 68.2523 20.646 69.9071C21.802 70.0829 22.9468 70.1757 24.0926 70.1757C28.6331 70.1757 33.0489 68.831 36.8364 66.4115C40.6128 63.9918 43.7599 60.5063 45.7622 56.2358C50.0376 47.0796 47.977 36.1077 40.7929 29.0598C40.4852 28.7645 40.0251 28.683 39.6305 28.8441Z" fill="#27AE60"/>
<path d="M31.2526 55.9885L31.1602 57.6128C31.1602 57.6128 31.1492 57.6128 31.1371 57.6015C30.6547 57.2561 23.0327 51.7725 18.7786 48.1779C18.7324 48.1436 18.6871 48.0972 18.6409 48.0629C17.5488 47.1296 16.4566 46.1619 15.5021 45.0564C13.2032 42.4294 12.6626 38.9273 14.019 35.9437C23.5262 38.6744 27.0899 47.9019 27.3201 48.5241C25.3889 39.6533 18.1004 34.0426 15.3987 32.2333L16.525 32.1638C19.1002 32.0139 22.8248 32.1407 25.4572 34.9751C27.2167 36.8873 28.6303 39.0652 29.5385 41.2886C31.5169 46.0924 31.5288 51.1965 31.2526 55.9885Z" fill="#27AE60"/>
</svg>
