<svg width="28" height="27" viewBox="0 0 28 27" fill="none" xmlns="http://www.w3.org/2000/svg">
<g clip-path="url(#clip0_122_13106)">
<path d="M20.9865 6.76335H26.5421V8.98557H20.9865V6.76335ZM18.7643 12.3189H26.5421V14.5411H18.7643V12.3189ZM22.0977 17.8745H26.5421V20.0967H22.0977V17.8745ZM2.09766 23.43C2.09766 21.0725 3.03416 18.8116 4.70115 17.1446C6.36814 15.4776 8.62906 14.5411 10.9865 14.5411C13.344 14.5411 15.6049 15.4776 17.2719 17.1446C18.9389 18.8116 19.8754 21.0725 19.8754 23.43H17.6532C17.6532 21.6619 16.9508 19.9662 15.7006 18.716C14.4503 17.4657 12.7547 16.7633 10.9865 16.7633C9.21843 16.7633 7.52274 17.4657 6.2725 18.716C5.02226 19.9662 4.31988 21.6619 4.31988 23.43H2.09766ZM10.9865 13.43C7.30321 13.43 4.31988 10.4467 4.31988 6.76335C4.31988 3.08001 7.30321 0.0966797 10.9865 0.0966797C14.6699 0.0966797 17.6532 3.08001 17.6532 6.76335C17.6532 10.4467 14.6699 13.43 10.9865 13.43ZM10.9865 11.2078C13.4421 11.2078 15.431 9.2189 15.431 6.76335C15.431 4.30779 13.4421 2.3189 10.9865 2.3189C8.53099 2.3189 6.5421 4.30779 6.5421 6.76335C6.5421 9.2189 8.53099 11.2078 10.9865 11.2078Z" fill="#27AE60"/>
</g>
<defs>
<clipPath id="clip0_122_13106">
<rect width="26.6667" height="26.6667" fill="white" transform="translate(0.892578 0.0966797)"/>
</clipPath>
</defs>
</svg>
