<svg width="32" height="32" viewBox="0 0 32 32" fill="none" xmlns="http://www.w3.org/2000/svg">
<path d="M4.14 30.8202C3.95161 30.8186 3.76583 30.776 3.59552 30.6955C3.4252 30.6149 3.27443 30.4983 3.15363 30.3538C3.03284 30.2092 2.94491 30.0401 2.89593 29.8582C2.84696 29.6763 2.83811 29.4859 2.87 29.3002L3.33 26.6402L1.39 24.7602C1.21846 24.5906 1.09748 24.3767 1.04059 24.1423C0.983695 23.9079 0.993134 23.6623 1.06785 23.4329C1.14257 23.2036 1.27961 22.9996 1.46366 22.8437C1.64771 22.6878 1.8715 22.5862 2.11 22.5502L4.78 22.1602L6 19.7502C6.10852 19.5357 6.27438 19.3555 6.47916 19.2296C6.68394 19.1037 6.91962 19.037 7.16 19.037C7.40039 19.037 7.63606 19.1037 7.84084 19.2296C8.04562 19.3555 8.21149 19.5357 8.32 19.7502L9.51 22.1702L12.18 22.5602C12.4185 22.5962 12.6423 22.6978 12.8263 22.8537C13.0104 23.0096 13.1474 23.2136 13.2222 23.4429C13.2969 23.6723 13.3063 23.9179 13.2494 24.1523C13.1925 24.3867 13.0715 24.6006 12.9 24.7702L10.97 26.6502L11.43 29.3102C11.4701 29.5484 11.443 29.7931 11.3518 30.0167C11.2606 30.2404 11.1089 30.4343 10.9136 30.5765C10.7184 30.7188 10.4874 30.8039 10.2466 30.8222C10.0057 30.8405 9.76449 30.7913 9.55 30.6802L7.13 29.4102L4.75 30.6702C4.56199 30.7693 4.35254 30.8208 4.14 30.8202ZM7.13 27.3202C7.33921 27.3208 7.54512 27.3723 7.73 27.4702L9.18 28.2302L8.9 26.6102C8.86313 26.4029 8.87757 26.1897 8.94206 25.9892C9.00656 25.7887 9.11915 25.6071 9.27 25.4602L10.44 24.3202L8.82 24.0802C8.60749 24.0541 8.40481 23.9756 8.23023 23.8516C8.05565 23.7277 7.91467 23.5622 7.82 23.3702L7.1 21.9002L6.37 23.3702C6.27533 23.5622 6.13435 23.7277 5.95977 23.8516C5.7852 23.9756 5.58251 24.0541 5.37 24.0802L3.75 24.3202L5 25.4702C5.15085 25.6171 5.26344 25.7987 5.32794 25.9992C5.39244 26.1997 5.40688 26.4129 5.37 26.6202L5.09 28.2302L6.54 27.4702C6.72202 27.3742 6.92424 27.3228 7.13 27.3202ZM25.78 22.2602C25.5292 22.2575 25.2826 22.1958 25.06 22.0802L19.91 19.3702L14.76 22.0802C14.4953 22.2178 14.1971 22.2777 13.8998 22.253C13.6025 22.2282 13.3182 22.1198 13.08 21.9402C12.845 21.7639 12.6641 21.5251 12.5581 21.2511C12.452 20.9771 12.425 20.6788 12.48 20.3902L13.48 14.6802L12.71 13.9302C12.5238 13.7428 12.4192 13.4894 12.4192 13.2252C12.4192 12.961 12.5238 12.7076 12.71 12.5202C12.8974 12.3339 13.1508 12.2294 13.415 12.2294C13.6792 12.2294 13.9326 12.3339 14.12 12.5202L15.06 13.4302C15.2473 13.6126 15.3857 13.8391 15.4626 14.089C15.5395 14.3389 15.5524 14.6041 15.5 14.8602L14.64 19.9302L19.23 17.5102C19.4579 17.3894 19.712 17.3262 19.97 17.3262C20.228 17.3262 20.4821 17.3894 20.71 17.5102L25.3 19.9302L24.42 14.8102C24.3758 14.5546 24.3956 14.2921 24.4776 14.046C24.5596 13.8 24.7013 13.5781 24.89 13.4002L28.57 9.80019L23.4 9.00019C23.1434 8.96251 22.8999 8.86262 22.6907 8.70924C22.4815 8.55585 22.3131 8.35362 22.2 8.12019L19.91 3.52019L17.62 8.17019C17.5002 8.38981 17.3315 8.57891 17.1268 8.72284C16.9222 8.86677 16.6872 8.96167 16.44 9.00019L11.29 9.74019L11.63 10.0802C11.8163 10.2676 11.9208 10.521 11.9208 10.7852C11.9208 11.0494 11.8163 11.3028 11.63 11.4902C11.537 11.5839 11.4264 11.6583 11.3046 11.7091C11.1827 11.7598 11.052 11.786 10.92 11.786C10.788 11.786 10.6573 11.7598 10.5354 11.7091C10.4136 11.6583 10.303 11.5839 10.21 11.4902L9.28 10.5702C9.08218 10.3663 8.94261 10.1131 8.87578 9.83704C8.80895 9.56093 8.81731 9.27197 8.9 9.00019C8.98974 8.7223 9.15519 8.47495 9.37778 8.28593C9.60036 8.09691 9.87125 7.97372 10.16 7.93019L15.92 7.10019L18.5 1.87019C18.6309 1.60679 18.8326 1.38514 19.0826 1.2302C19.3326 1.07526 19.6209 0.993164 19.915 0.993164C20.2091 0.993164 20.4974 1.07526 20.7474 1.2302C20.9974 1.38514 21.1991 1.60679 21.33 1.87019L23.9 7.09019L29.64 7.93019C29.9332 7.96792 30.2094 8.0887 30.4362 8.27829C30.663 8.46787 30.8309 8.71835 30.92 9.00019C31.0152 9.2834 31.0282 9.5878 30.9574 9.87808C30.8866 10.1684 30.7349 10.4326 30.52 10.6402L26.37 14.7002L27.37 20.4202C27.4094 20.6487 27.3983 20.8831 27.3375 21.1069C27.2767 21.3308 27.1677 21.5386 27.0181 21.7158C26.8685 21.893 26.682 22.0354 26.4716 22.1329C26.2611 22.2304 26.0319 22.2806 25.8 22.2802L25.78 22.2602Z" fill="#27AE60"/>
</svg>
