<svg width="32" height="32" viewBox="0 0 32 32" fill="none" xmlns="http://www.w3.org/2000/svg">
<g clip-path="url(#clip0_122_13098)">
<path d="M16.0013 2.66699C23.3653 2.66699 29.3346 8.63633 29.3346 16.0003C29.3346 23.3643 23.3653 29.3337 16.0013 29.3337C8.6373 29.3337 2.66797 23.3643 2.66797 16.0003H5.33464C5.33464 21.891 10.1106 26.667 16.0013 26.667C21.892 26.667 26.668 21.891 26.668 16.0003C26.668 10.1097 21.892 5.33366 16.0013 5.33366C12.716 5.33366 9.7773 6.81899 7.8213 9.15366L10.668 12.0003H2.66797V4.00033L5.93064 7.26166C8.37464 4.44833 11.98 2.66699 16.0013 2.66699ZM17.3346 9.33366V15.447L21.6586 19.771L19.772 21.6577L14.668 16.551V9.33366H17.3346Z" fill="#27AE60"/>
</g>
<defs>
<clipPath id="clip0_122_13098">
<rect width="32" height="32" fill="white"/>
</clipPath>
</defs>
</svg>
